<svg xmlns="http://www.w3.org/2000/svg" viewBox="0 0 800 500" width="800" height="500">
<defs>
  <linearGradient id="dg" x1="0" y1="0" x2="1" y2="0">
    <stop offset="0"   stop-color="#e8d4f8" stop-opacity="0"/>
    <stop offset="0.3" stop-color="#e8d4f8"/>
    <stop offset="0.7" stop-color="#e8d4f8"/>
    <stop offset="1"   stop-color="#e8d4f8" stop-opacity="0"/>
  </linearGradient>
</defs>
<style>
.eo{animation:eblink 5s 2s ease-in-out infinite}
.ec{opacity:0;animation:eblink-c 5s 2s ease-in-out infinite}
@keyframes eblink{0%,85%,100%{opacity:1}90%,95%{opacity:0}}
@keyframes eblink-c{0%,85%,100%{opacity:0}90%,95%{opacity:1}}
.tl{transform-origin:156px 95px;animation:wag 1.3s ease-in-out infinite}
@keyframes wag{0%,100%{transform:rotate(-8deg)}50%{transform:rotate(16deg)}}
.p0,.p1,.p2,.p3,.p4{opacity:0}
.p0{animation:sp 20s 0s infinite}
.p1{animation:sp 20s 4s infinite}
.p2{animation:sp 20s 8s infinite}
.p3{animation:sp 20s 12s infinite}
.p4{animation:sp 20s 16s infinite}
@keyframes sp{0%,2%{opacity:0}7%{opacity:1}17%{opacity:1}22%,100%{opacity:0}}
.cur{animation:cur 0.8s step-end infinite}
@keyframes cur{0%,100%{opacity:1}50%{opacity:0}}
.sdot{animation:sd 2.2s ease-in-out infinite}
@keyframes sd{0%,100%{opacity:1}50%{opacity:0.4}}
.st1{animation:tw 2.5s 0s ease-in-out infinite}
.st2{animation:tw 2.5s 0.8s ease-in-out infinite}
.st3{animation:tw 2.5s 1.6s ease-in-out infinite}
@keyframes tw{0%,100%{opacity:0.25}50%{opacity:1}}
.sk1{animation:sk 7s 0s linear infinite}
.sk2{animation:sk 8s 2.5s linear infinite}
.sk3{animation:sk 6s 4.5s linear infinite}
.sk4{animation:sk 9s 1s linear infinite}
@keyframes sk{0%{transform:translate(0,0) rotate(0deg);opacity:0}8%{opacity:0.65}92%{opacity:0.3}100%{transform:translate(-28px,510px) rotate(540deg);opacity:0}}
</style>
<rect width="800" height="500" rx="20" fill="#fffaff"/>
<rect width="800" height="500" rx="20" fill="none" stroke="#ead8f5" stroke-width="1.5"/>
<circle cx="762" cy="30" r="3" fill="#e8d0f5"/>
<circle cx="750" cy="42" r="2" fill="#f5c8e0"/>
<circle cx="38"  cy="472" r="2.5" fill="#dcc8f5"/>
<circle cx="52"  cy="484" r="2" fill="#f0d0e8"/>
<ellipse cx="660" cy="-8" rx="7" ry="5" fill="#f8c8d8" class="sk1"/>
<ellipse cx="715" cy="-5" rx="5" ry="7" fill="#f5c0d4" class="sk2"/>
<circle  cx="752" cy="-9" r="5"          fill="#fdd0e4" class="sk3"/>
<ellipse cx="688" cy="-6" rx="6" ry="4" fill="#f8c8d8" class="sk4"/>
<rect x="28" y="28" width="150" height="150" rx="18" fill="#f7effe" stroke="#dfc8f5" stroke-width="1.5"/>
<rect x="63" y="38" width="7" height="7" fill="#F5C87A"/>
<rect x="70" y="38" width="7" height="7" fill="#F5C87A"/>
<rect x="133" y="38" width="7" height="7" fill="#F5C87A"/>
<rect x="140" y="38" width="7" height="7" fill="#F5C87A"/>
<rect x="56" y="45" width="7" height="7" fill="#F5C87A"/>
<rect x="63" y="45" width="7" height="7" fill="#F5C87A"/>
<rect x="77" y="45" width="7" height="7" fill="#F5C87A"/>
<rect x="126" y="45" width="7" height="7" fill="#F5C87A"/>
<rect x="140" y="45" width="7" height="7" fill="#F5C87A"/>
<rect x="147" y="45" width="7" height="7" fill="#F5C87A"/>
<rect x="70" y="45" width="7" height="7" fill="#D87060"/>
<rect x="133" y="45" width="7" height="7" fill="#D87060"/>
<rect x="56" y="52" width="7" height="7" fill="#F5C87A"/>
<rect x="63" y="52" width="7" height="7" fill="#F5C87A"/>
<rect x="77" y="52" width="7" height="7" fill="#F5C87A"/>
<rect x="126" y="52" width="7" height="7" fill="#F5C87A"/>
<rect x="140" y="52" width="7" height="7" fill="#F5C87A"/>
<rect x="147" y="52" width="7" height="7" fill="#F5C87A"/>
<rect x="70" y="52" width="7" height="7" fill="#D87060"/>
<rect x="133" y="52" width="7" height="7" fill="#D87060"/>
<rect x="63" y="59" width="7" height="7" fill="#F5C87A"/>
<rect x="70" y="59" width="7" height="7" fill="#F5C87A"/>
<rect x="77" y="59" width="7" height="7" fill="#F5C87A"/>
<rect x="84" y="59" width="7" height="7" fill="#F5C87A"/>
<rect x="91" y="59" width="7" height="7" fill="#F5C87A"/>
<rect x="98" y="59" width="7" height="7" fill="#F5C87A"/>
<rect x="105" y="59" width="7" height="7" fill="#F5C87A"/>
<rect x="112" y="59" width="7" height="7" fill="#F5C87A"/>
<rect x="119" y="59" width="7" height="7" fill="#F5C87A"/>
<rect x="126" y="59" width="7" height="7" fill="#F5C87A"/>
<rect x="133" y="59" width="7" height="7" fill="#F5C87A"/>
<rect x="140" y="59" width="7" height="7" fill="#F5C87A"/>
<rect x="56" y="66" width="7" height="7" fill="#F5C87A"/>
<rect x="63" y="66" width="7" height="7" fill="#F5C87A"/>
<rect x="70" y="66" width="7" height="7" fill="#F5C87A"/>
<rect x="77" y="66" width="7" height="7" fill="#F5C87A"/>
<rect x="84" y="66" width="7" height="7" fill="#F5C87A"/>
<rect x="91" y="66" width="7" height="7" fill="#F5C87A"/>
<rect x="98" y="66" width="7" height="7" fill="#F5C87A"/>
<rect x="105" y="66" width="7" height="7" fill="#F5C87A"/>
<rect x="112" y="66" width="7" height="7" fill="#F5C87A"/>
<rect x="119" y="66" width="7" height="7" fill="#F5C87A"/>
<rect x="126" y="66" width="7" height="7" fill="#F5C87A"/>
<rect x="133" y="66" width="7" height="7" fill="#F5C87A"/>
<rect x="140" y="66" width="7" height="7" fill="#F5C87A"/>
<rect x="147" y="66" width="7" height="7" fill="#F5C87A"/>
<rect x="56" y="73" width="7" height="7" fill="#F5C87A"/>
<rect x="63" y="73" width="7" height="7" fill="#F5C87A"/>
<rect x="70" y="73" width="7" height="7" fill="#F5C87A"/>
<rect x="77" y="73" width="7" height="7" fill="#F5C87A"/>
<rect x="84" y="73" width="7" height="7" fill="#F5C87A"/>
<rect x="91" y="73" width="7" height="7" fill="#F5C87A"/>
<rect x="98" y="73" width="7" height="7" fill="#F5C87A"/>
<rect x="105" y="73" width="7" height="7" fill="#F5C87A"/>
<rect x="112" y="73" width="7" height="7" fill="#F5C87A"/>
<rect x="119" y="73" width="7" height="7" fill="#F5C87A"/>
<rect x="126" y="73" width="7" height="7" fill="#F5C87A"/>
<rect x="133" y="73" width="7" height="7" fill="#F5C87A"/>
<rect x="140" y="73" width="7" height="7" fill="#F5C87A"/>
<rect x="147" y="73" width="7" height="7" fill="#F5C87A"/>
<rect x="56" y="80" width="7" height="7" fill="#F5C87A"/>
<rect x="63" y="80" width="7" height="7" fill="#F5C87A"/>
<rect x="84" y="80" width="7" height="7" fill="#F5C87A"/>
<rect x="91" y="80" width="7" height="7" fill="#F5C87A"/>
<rect x="98" y="80" width="7" height="7" fill="#F5C87A"/>
<rect x="105" y="80" width="7" height="7" fill="#F5C87A"/>
<rect x="112" y="80" width="7" height="7" fill="#F5C87A"/>
<rect x="119" y="80" width="7" height="7" fill="#F5C87A"/>
<rect x="140" y="80" width="7" height="7" fill="#F5C87A"/>
<rect x="147" y="80" width="7" height="7" fill="#F5C87A"/>
<rect x="70" y="80" width="7" height="7" fill="#2A1808"/>
<rect x="77" y="80" width="7" height="7" fill="#2A1808"/>
<rect x="126" y="80" width="7" height="7" fill="#2A1808"/>
<rect x="133" y="80" width="7" height="7" fill="#2A1808"/>
<rect x="56" y="87" width="7" height="7" fill="#F5C87A"/>
<rect x="63" y="87" width="7" height="7" fill="#F5C87A"/>
<rect x="84" y="87" width="7" height="7" fill="#F5C87A"/>
<rect x="91" y="87" width="7" height="7" fill="#F5C87A"/>
<rect x="98" y="87" width="7" height="7" fill="#F5C87A"/>
<rect x="105" y="87" width="7" height="7" fill="#F5C87A"/>
<rect x="112" y="87" width="7" height="7" fill="#F5C87A"/>
<rect x="119" y="87" width="7" height="7" fill="#F5C87A"/>
<rect x="140" y="87" width="7" height="7" fill="#F5C87A"/>
<rect x="147" y="87" width="7" height="7" fill="#F5C87A"/>
<rect x="70" y="87" width="7" height="7" fill="#2A1808"/>
<rect x="77" y="87" width="7" height="7" fill="#2A1808"/>
<rect x="126" y="87" width="7" height="7" fill="#2A1808"/>
<rect x="133" y="87" width="7" height="7" fill="#2A1808"/>
<rect x="56" y="94" width="7" height="7" fill="#F5C87A"/>
<rect x="63" y="94" width="7" height="7" fill="#F5C87A"/>
<rect x="70" y="94" width="7" height="7" fill="#F5C87A"/>
<rect x="77" y="94" width="7" height="7" fill="#F5C87A"/>
<rect x="84" y="94" width="7" height="7" fill="#F5C87A"/>
<rect x="91" y="94" width="7" height="7" fill="#F5C87A"/>
<rect x="98" y="94" width="7" height="7" fill="#F5C87A"/>
<rect x="105" y="94" width="7" height="7" fill="#F5C87A"/>
<rect x="112" y="94" width="7" height="7" fill="#F5C87A"/>
<rect x="119" y="94" width="7" height="7" fill="#F5C87A"/>
<rect x="126" y="94" width="7" height="7" fill="#F5C87A"/>
<rect x="133" y="94" width="7" height="7" fill="#F5C87A"/>
<rect x="140" y="94" width="7" height="7" fill="#F5C87A"/>
<rect x="147" y="94" width="7" height="7" fill="#F5C87A"/>
<rect x="56" y="101" width="7" height="7" fill="#F5C87A"/>
<rect x="63" y="101" width="7" height="7" fill="#F5C87A"/>
<rect x="140" y="101" width="7" height="7" fill="#F5C87A"/>
<rect x="147" y="101" width="7" height="7" fill="#F5C87A"/>
<rect x="70" y="101" width="7" height="7" fill="#FFF4E8"/>
<rect x="77" y="101" width="7" height="7" fill="#FFF4E8"/>
<rect x="84" y="101" width="7" height="7" fill="#FFF4E8"/>
<rect x="91" y="101" width="7" height="7" fill="#FFF4E8"/>
<rect x="98" y="101" width="7" height="7" fill="#FFF4E8"/>
<rect x="105" y="101" width="7" height="7" fill="#FFF4E8"/>
<rect x="112" y="101" width="7" height="7" fill="#FFF4E8"/>
<rect x="119" y="101" width="7" height="7" fill="#FFF4E8"/>
<rect x="126" y="101" width="7" height="7" fill="#FFF4E8"/>
<rect x="133" y="101" width="7" height="7" fill="#FFF4E8"/>
<rect x="56" y="108" width="7" height="7" fill="#F5C87A"/>
<rect x="63" y="108" width="7" height="7" fill="#F5C87A"/>
<rect x="140" y="108" width="7" height="7" fill="#F5C87A"/>
<rect x="147" y="108" width="7" height="7" fill="#F5C87A"/>
<rect x="70" y="108" width="7" height="7" fill="#FFF4E8"/>
<rect x="77" y="108" width="7" height="7" fill="#FFF4E8"/>
<rect x="126" y="108" width="7" height="7" fill="#FFF4E8"/>
<rect x="133" y="108" width="7" height="7" fill="#FFF4E8"/>
<rect x="84" y="108" width="7" height="7" fill="#3A1005"/>
<rect x="91" y="108" width="7" height="7" fill="#3A1005"/>
<rect x="98" y="108" width="7" height="7" fill="#3A1005"/>
<rect x="105" y="108" width="7" height="7" fill="#3A1005"/>
<rect x="112" y="108" width="7" height="7" fill="#3A1005"/>
<rect x="119" y="108" width="7" height="7" fill="#3A1005"/>
<rect x="56" y="115" width="7" height="7" fill="#F5C87A"/>
<rect x="63" y="115" width="7" height="7" fill="#F5C87A"/>
<rect x="140" y="115" width="7" height="7" fill="#F5C87A"/>
<rect x="147" y="115" width="7" height="7" fill="#F5C87A"/>
<rect x="70" y="115" width="7" height="7" fill="#FFF4E8"/>
<rect x="77" y="115" width="7" height="7" fill="#FFF4E8"/>
<rect x="84" y="115" width="7" height="7" fill="#FFF4E8"/>
<rect x="119" y="115" width="7" height="7" fill="#FFF4E8"/>
<rect x="126" y="115" width="7" height="7" fill="#FFF4E8"/>
<rect x="133" y="115" width="7" height="7" fill="#FFF4E8"/>
<rect x="91" y="115" width="7" height="7" fill="#D85060"/>
<rect x="98" y="115" width="7" height="7" fill="#D85060"/>
<rect x="105" y="115" width="7" height="7" fill="#D85060"/>
<rect x="112" y="115" width="7" height="7" fill="#D85060"/>
<rect x="63" y="122" width="7" height="7" fill="#F5C87A"/>
<rect x="70" y="122" width="7" height="7" fill="#F5C87A"/>
<rect x="77" y="122" width="7" height="7" fill="#F5C87A"/>
<rect x="84" y="122" width="7" height="7" fill="#F5C87A"/>
<rect x="91" y="122" width="7" height="7" fill="#F5C87A"/>
<rect x="98" y="122" width="7" height="7" fill="#F5C87A"/>
<rect x="105" y="122" width="7" height="7" fill="#F5C87A"/>
<rect x="112" y="122" width="7" height="7" fill="#F5C87A"/>
<rect x="119" y="122" width="7" height="7" fill="#F5C87A"/>
<rect x="126" y="122" width="7" height="7" fill="#F5C87A"/>
<rect x="133" y="122" width="7" height="7" fill="#F5C87A"/>
<rect x="140" y="122" width="7" height="7" fill="#F5C87A"/>
<rect x="56" y="129" width="7" height="7" fill="#F5C87A"/>
<rect x="63" y="129" width="7" height="7" fill="#F5C87A"/>
<rect x="70" y="129" width="7" height="7" fill="#F5C87A"/>
<rect x="77" y="129" width="7" height="7" fill="#F5C87A"/>
<rect x="84" y="129" width="7" height="7" fill="#F5C87A"/>
<rect x="91" y="129" width="7" height="7" fill="#F5C87A"/>
<rect x="98" y="129" width="7" height="7" fill="#F5C87A"/>
<rect x="105" y="129" width="7" height="7" fill="#F5C87A"/>
<rect x="112" y="129" width="7" height="7" fill="#F5C87A"/>
<rect x="119" y="129" width="7" height="7" fill="#F5C87A"/>
<rect x="126" y="129" width="7" height="7" fill="#F5C87A"/>
<rect x="133" y="129" width="7" height="7" fill="#F5C87A"/>
<rect x="140" y="129" width="7" height="7" fill="#F5C87A"/>
<rect x="147" y="129" width="7" height="7" fill="#F5C87A"/>
<rect x="56" y="136" width="7" height="7" fill="#F5C87A"/>
<rect x="63" y="136" width="7" height="7" fill="#F5C87A"/>
<rect x="140" y="136" width="7" height="7" fill="#F5C87A"/>
<rect x="147" y="136" width="7" height="7" fill="#F5C87A"/>
<rect x="70" y="136" width="7" height="7" fill="#FFF4E8"/>
<rect x="77" y="136" width="7" height="7" fill="#FFF4E8"/>
<rect x="84" y="136" width="7" height="7" fill="#FFF4E8"/>
<rect x="91" y="136" width="7" height="7" fill="#FFF4E8"/>
<rect x="98" y="136" width="7" height="7" fill="#FFF4E8"/>
<rect x="105" y="136" width="7" height="7" fill="#FFF4E8"/>
<rect x="112" y="136" width="7" height="7" fill="#FFF4E8"/>
<rect x="119" y="136" width="7" height="7" fill="#FFF4E8"/>
<rect x="126" y="136" width="7" height="7" fill="#FFF4E8"/>
<rect x="133" y="136" width="7" height="7" fill="#FFF4E8"/>
<rect x="56" y="143" width="7" height="7" fill="#F5C87A"/>
<rect x="63" y="143" width="7" height="7" fill="#F5C87A"/>
<rect x="140" y="143" width="7" height="7" fill="#F5C87A"/>
<rect x="147" y="143" width="7" height="7" fill="#F5C87A"/>
<rect x="70" y="143" width="7" height="7" fill="#FFF4E8"/>
<rect x="77" y="143" width="7" height="7" fill="#FFF4E8"/>
<rect x="84" y="143" width="7" height="7" fill="#FFF4E8"/>
<rect x="91" y="143" width="7" height="7" fill="#FFF4E8"/>
<rect x="98" y="143" width="7" height="7" fill="#FFF4E8"/>
<rect x="105" y="143" width="7" height="7" fill="#FFF4E8"/>
<rect x="112" y="143" width="7" height="7" fill="#FFF4E8"/>
<rect x="119" y="143" width="7" height="7" fill="#FFF4E8"/>
<rect x="126" y="143" width="7" height="7" fill="#FFF4E8"/>
<rect x="133" y="143" width="7" height="7" fill="#FFF4E8"/>
<rect x="56" y="150" width="7" height="7" fill="#D8952A"/>
<rect x="63" y="150" width="7" height="7" fill="#D8952A"/>
<rect x="140" y="150" width="7" height="7" fill="#D8952A"/>
<rect x="147" y="150" width="7" height="7" fill="#D8952A"/>
<rect x="70" y="150" width="7" height="7" fill="#F5C87A"/>
<rect x="77" y="150" width="7" height="7" fill="#F5C87A"/>
<rect x="126" y="150" width="7" height="7" fill="#F5C87A"/>
<rect x="133" y="150" width="7" height="7" fill="#F5C87A"/>
<rect x="56" y="157" width="7" height="7" fill="#D8952A"/>
<rect x="63" y="157" width="7" height="7" fill="#D8952A"/>
<rect x="140" y="157" width="7" height="7" fill="#D8952A"/>
<rect x="147" y="157" width="7" height="7" fill="#D8952A"/>
<rect x="83" y="59" width="42" height="9" rx="4" fill="#FFF4E8" opacity="0.45"/>
<g class="eo">
  <rect x="70" y="80" width="14" height="14" rx="2" fill="#2A1808"/>
  <rect x="126" y="80" width="14" height="14" rx="2" fill="#2A1808"/>
  <rect x="72" y="81" width="4" height="4" rx="1" fill="#ffffff" opacity="0.5"/>
  <rect x="128" y="81" width="4" height="4" rx="1" fill="#ffffff" opacity="0.5"/>
</g>
<g class="ec">
  <rect x="70" y="86" width="14" height="5" rx="2" fill="#2A1808"/>
  <rect x="126" y="86" width="14" height="5" rx="2" fill="#2A1808"/>
</g>
<ellipse cx="59"  cy="106" rx="9" ry="6" fill="#F4A0B0" opacity="0.6"/>
<ellipse cx="137" cy="106" rx="9" ry="6" fill="#F4A0B0" opacity="0.6"/>
<g class="tl">
  <circle cx="156" cy="92" r="8" fill="#F5C87A"/>
  <circle cx="160" cy="82" r="7" fill="#F5C87A"/>
  <circle cx="161" cy="73" r="6" fill="#D8952A"/>
</g>
<text x="200" y="58" font-family="sans-serif" font-size="11" fill="#c0a0d8" letter-spacing="4">A Engineer/Researcher</text>
<text x="200" y="95" font-family="sans-serif" font-size="30" font-weight="700" fill="#3a2460">Cheng Liu</text>
<text x="200" y="117" font-family="monospace" font-size="12" fill="#9878b8"><tspan>@chengliu01 · China · </tspan><a href="https://scholar.google.com/citations?user=02Xo4iYAAAAJ" target="_blank" rel="noopener noreferrer"><tspan fill="#7040a8" text-decoration="underline">Scholar</tspan></a></text>
<g font-family="sans-serif" font-size="14" fill="#7040a8">
<text x="200" y="143" class="p0">build things that spark joy</text>
<text x="200" y="143" class="p1">Conan... its Kudo Shinichi</text>
<text x="200" y="143" class="p2">mu's music start!</text>
<text x="200" y="143" class="p3">git commit -m yi qie shun li</text>
<text x="200" y="143" class="p4">shiba is my spirit animal</text>
  <text x="200" y="143" class="cur" fill="#b070e0">|</text>
</g>
<rect x="200" y="155" width="96" height="24" rx="12" fill="#f0e8ff" stroke="#d4b8f8" stroke-width="1"/>
<text x="248" y="171" font-family="sans-serif" font-size="12" font-weight="600" fill="#7040b8" text-anchor="middle">Developer</text>
<rect x="306" y="155" width="136" height="24" rx="12" fill="#fff0f6" stroke="#f5c0d8" stroke-width="1"/>
<text x="374" y="171" font-family="sans-serif" font-size="12" font-weight="600" fill="#c04888" text-anchor="middle">ACG Enthusiast</text>
<rect x="452" y="155" width="152" height="24" rx="12" fill="#eef4ff" stroke="#b8d0f8" stroke-width="1"/>
<text x="528" y="171" font-family="sans-serif" font-size="12" font-weight="600" fill="#3060b8" text-anchor="middle">Agentic Engineer</text>
<line x1="28" y1="200" x2="772" y2="200" stroke="url(#dg)" stroke-width="1"/>
<text x="36" y="224" font-family="sans-serif" font-size="10" fill="#c0a0d8" letter-spacing="3">A B O U T   M E</text>
<circle cx="46" cy="252" r="5" fill="#a8c4f8"/>
<text x="60" y="251" font-family="sans-serif" font-size="14" font-weight="600" fill="#3a2460">LLM Engineer</text>
<text x="60" y="268" font-family="sans-serif" font-size="12" fill="#a888cc">Moonshot/Tencent · China</text>
<circle cx="422" cy="252" r="5" fill="#f8a8c8"/>
<text x="436" y="251" font-family="sans-serif" font-size="14" font-weight="600" fill="#3a2460">ACG Enthusiast</text>
<text x="436" y="268" font-family="sans-serif" font-size="12" fill="#a888cc">Detective Conan / LoveLive</text>
<circle cx="46" cy="300" r="5" fill="#c0a8f8"/>
<text x="60" y="299" font-family="sans-serif" font-size="14" font-weight="600" fill="#3a2460">Code Craftsman</text>
<text x="60" y="316" font-family="sans-serif" font-size="12" fill="#a888cc">LLM · RL · Agent</text>
<circle cx="422" cy="300" r="5" fill="#a8e0b8"/>
<text x="436" y="299" font-family="sans-serif" font-size="14" font-weight="600" fill="#3a2460">Shiba Appreciation</text>
<text x="436" y="316" font-family="sans-serif" font-size="12" fill="#a888cc">Shiba Inu forever</text>
<line x1="28" y1="345" x2="772" y2="345" stroke="url(#dg)" stroke-width="1"/>
<text x="36" y="368" font-family="sans-serif" font-size="10" fill="#c0a0d8" letter-spacing="3">I N T R O</text>
<text x="36" y="390" font-family="sans-serif" font-size="13" fill="#5a4070">LLM engineer &amp; researcher @ KIMI @ Tencent, Shenzhen.</text>
<text x="36" y="412" font-family="sans-serif" font-size="13" fill="#5a4070">Fascinated by LLMs, RL, and building agentic systems.</text>
<text x="36" y="434" font-family="sans-serif" font-size="13" fill="#5a4070">Recharging with Detective Conan and shiba inu content.</text>
<line x1="28" y1="455" x2="772" y2="455" stroke="url(#dg)" stroke-width="1"/>
<circle cx="46" cy="477" r="5" fill="#6db85a" class="sdot"/>
<text x="58" y="481" font-family="sans-serif" font-size="11" font-weight="600" fill="#5aa84a">Online · coding now</text>
<text x="690" y="483" font-family="sans-serif" font-size="16" fill="#c8b0e8" class="st1">&#x2666;</text>
<text x="712" y="483" font-family="sans-serif" font-size="16" fill="#c8b0e8" class="st2">&#x2666;</text>
<text x="734" y="483" font-family="sans-serif" font-size="16" fill="#c8b0e8" class="st3">&#x2666;</text>
</svg>